<?xml version="1.0" encoding="iso-8859-1"?>
<!-- Generator: Adobe Illustrator 19.0.0, SVG Export Plug-In . SVG Version: 6.00 Build 0)  -->
<svg version="1.1" id="Layer_1" xmlns="http://www.w3.org/2000/svg" xmlns:xlink="http://www.w3.org/1999/xlink" x="0px" y="0px"
	 viewBox="0 0 512 512" style="enable-background:new 0 0 512 512;" xml:space="preserve">
<g>
	<g>
		<path d="M272.781,311.13c-14.367-21.575-34.863-38.858-59.273-49.98c-14.751-6.721-30.592-11.07-47.115-12.94
			c-3.189-1.722-9.941-5.15-19.257-5.15c-10.631,0-17.543,3.613-20.871,5.515c-16.885,2.227-32.987,7.05-47.889,14.347
			c-0.002,0.001-0.004,0.002-0.006,0.003C29.297,286.96,0,333.769,0,388.142c0,39.084,15.345,71.29,44.375,93.138
			c26.109,19.649,61.88,30.034,103.445,30.034c41.566,0,77.338-10.386,103.445-30.034c29.03-21.847,44.375-54.054,44.375-93.138
			C295.64,360.217,287.736,333.585,272.781,311.13z M130.552,268.594c2.328-0.279,3.981-1.237,5.309-2.005
			c2.021-1.17,5.405-3.129,11.275-3.129c4.6,0,7.961,1.828,9.971,2.919c1.464,0.796,3.123,1.697,5.428,1.933
			c11.32,1.155,22.266,3.638,32.67,7.395c-9.346,13.369-28.237,22.129-49.438,22.129c-20.334,0-38.846-8.273-48.525-20.931
			C107.798,272.78,118.958,269.988,130.552,268.594z M147.82,490.915c-61.599,0-127.422-26.998-127.422-102.773
			c0-43.094,21.58-80.63,58.229-102.208c12.926,19.682,38.466,32.3,67.139,32.3c29.3,0,55.673-13.558,68.209-34.041
			c38.553,21.231,61.266,59.417,61.266,103.949C275.242,463.917,209.42,490.915,147.82,490.915z"/>
	</g>
</g>
<g>
	<g>
		<path d="M476.377,41.633c-19.747-19.747-44.167-32.987-70.62-38.292c-25.416-5.099-52.13-2.824-77.255,6.571
			c-0.002,0.001-0.003,0.001-0.005,0.002c-15.18,5.678-29.456,13.803-42.459,24.163c-3.473,1.038-10.67,3.388-17.259,9.976
			c-7.517,7.518-9.85,14.959-10.858,18.656c-10.365,13.514-18.339,28.308-23.716,44.005c0,0.001-0.001,0.002-0.001,0.004
			c-17.708,51.697-5.326,105.516,33.124,143.965c23.486,23.485,51.293,35.623,81.194,35.623c5.285,0,10.638-0.379,16.042-1.142
			c32.355-4.568,64.992-22.518,94.385-51.909c29.391-29.392,47.342-62.03,51.91-94.385
			C515.937,102.894,504.014,69.27,476.377,41.633z M275.107,73.837c1.448-1.845,1.941-3.691,2.337-5.174
			c0.602-2.257,1.609-6.035,5.759-10.185c3.253-3.253,6.922-4.337,9.115-4.985c1.597-0.472,3.408-1.008,5.205-2.471
			c8.821-7.189,18.318-13.172,28.33-17.872c2.846,16.062-4.319,35.614-19.31,50.604c-14.379,14.379-33.318,21.617-49.112,19.512
			C261.98,92.884,267.896,83.019,275.107,73.837z M444.524,218.829c-43.557,43.557-109.192,71.01-162.772,17.429
			c-30.472-30.472-41.755-72.274-31.099-113.447c23.059,4.778,50.039-4.359,70.313-24.634
			c20.719-20.719,29.782-48.954,24.161-72.302c42.274-12.249,85.337-1.308,116.825,30.182
			C515.534,109.637,488.082,175.272,444.524,218.829z"/>
	</g>
</g>
<g>
	<g>
		<path d="M139.403,452.844c-32.771,0-59.245-10.9-72.633-29.906c-3.243-4.605-9.606-5.709-14.212-2.465
			c-4.605,3.243-5.708,9.607-2.465,14.212c17.514,24.864,49.232,38.557,89.308,38.557c5.633,0,10.199-4.566,10.199-10.199
			C149.601,457.409,145.036,452.844,139.403,452.844z"/>
	</g>
</g>
<g>
	<g>
		<path d="M56.242,391.218c-0.098-1.61-0.147-3.271-0.147-4.934c0-5.633-4.566-10.199-10.199-10.199
			c-5.633,0-10.199,4.566-10.199,10.199c0,2.073,0.062,4.149,0.185,6.168c0.328,5.413,4.82,9.583,10.171,9.583
			c0.208,0,0.417-0.006,0.626-0.019C52.303,401.675,56.584,396.841,56.242,391.218z"/>
	</g>
</g>
<g>
</g>
<g>
</g>
<g>
</g>
<g>
</g>
<g>
</g>
<g>
</g>
<g>
</g>
<g>
</g>
<g>
</g>
<g>
</g>
<g>
</g>
<g>
</g>
<g>
</g>
<g>
</g>
<g>
</g>
</svg>
