<?xml version="1.0" encoding="iso-8859-1"?>
<!-- Generator: Adobe Illustrator 19.0.0, SVG Export Plug-In . SVG Version: 6.00 Build 0)  -->
<svg version="1.1" id="Layer_1" xmlns="http://www.w3.org/2000/svg" xmlns:xlink="http://www.w3.org/1999/xlink" x="0px" y="0px"
	 viewBox="0 0 512 512" style="enable-background:new 0 0 512 512;" xml:space="preserve">
<g>
	<g>
		<path d="M400.476,35.16H388.94V10.199C388.94,4.566,384.374,0,378.741,0H282.85c-5.633,0-10.199,4.566-10.199,10.199V35.16
			H111.524c-5.633,0-10.199,4.566-10.199,10.199v456.442c0,5.633,4.566,10.199,10.199,10.199h288.953
			c5.633,0,10.199-4.566,10.199-10.199V45.359C410.676,39.726,406.109,35.16,400.476,35.16z M293.048,20.398h75.492V35.16h-75.492
			V20.398z M121.723,55.558h268.553v42.89H121.723V55.558z M390.277,491.602H121.723v-42.89h268.554V491.602z M390.277,428.314
			h-0.001H121.723V118.846h268.554V428.314z"/>
	</g>
</g>
<g>
	<g>
		<path d="M267.011,191.163c-1.896-2.81-5.065-4.495-8.455-4.495s-6.559,1.685-8.455,4.495
			c-5.354,7.935-52.306,78.397-52.306,108.569c0.002,33.503,27.259,60.76,60.762,60.76c33.503,0,60.76-27.257,60.76-60.76
			C319.316,269.56,272.364,199.099,267.011,191.163z M258.556,340.093c-22.256,0-40.361-18.106-40.361-40.361
			c0-15.53,22.155-55.527,40.362-84.22c18.208,28.685,40.36,68.675,40.36,84.22C298.918,321.988,280.812,340.093,258.556,340.093z"
			/>
	</g>
</g>
<g>
	<g>
		<path d="M363.397,262.102c-5.633,0-10.199,4.566-10.199,10.199v3.837c0,5.633,4.566,10.199,10.199,10.199
			c5.633,0,10.199-4.566,10.199-10.199v-3.837C373.596,266.668,369.03,262.102,363.397,262.102z"/>
	</g>
</g>
<g>
	<g>
		<path d="M363.397,295.344c-5.633,0-10.199,4.566-10.199,10.199v95.891c0,5.633,4.566,10.199,10.199,10.199
			c5.633,0,10.199-4.566,10.199-10.199v-95.891C373.596,299.911,369.03,295.344,363.397,295.344z"/>
	</g>
</g>
<g>
</g>
<g>
</g>
<g>
</g>
<g>
</g>
<g>
</g>
<g>
</g>
<g>
</g>
<g>
</g>
<g>
</g>
<g>
</g>
<g>
</g>
<g>
</g>
<g>
</g>
<g>
</g>
<g>
</g>
</svg>
