<?xml version="1.0" encoding="iso-8859-1"?>
<!-- Generator: Adobe Illustrator 19.0.0, SVG Export Plug-In . SVG Version: 6.00 Build 0)  -->
<svg version="1.1" id="Layer_1" xmlns="http://www.w3.org/2000/svg" xmlns:xlink="http://www.w3.org/1999/xlink" x="0px" y="0px"
	 viewBox="0 0 512 512" style="enable-background:new 0 0 512 512;" xml:space="preserve">
<g>
	<g>
		<path d="M466.628,430.385v-0.002c-3.342-32.574-18.115-63.08-41.599-85.898l-73.2-71.124
			c-22.972-22.319-36.146-53.49-36.146-85.519V64.277c13.653-3.962,23.665-16.574,23.665-31.488C339.348,14.709,324.639,0,306.558,0
			H205.441c-18.08,0-32.788,14.709-32.788,32.789c0,14.913,10.013,27.525,23.665,31.488v123.567
			c0,32.03-13.174,63.199-36.146,85.519l-73.201,71.123c-23.484,22.818-38.257,53.322-41.598,85.897v0.002
			c-0.485,4.725-0.73,9.52-0.73,14.25C44.643,481.781,74.862,512,112.007,512h287.988c37.145,0,67.364-30.219,67.364-67.364
			C467.357,439.905,467.111,435.11,466.628,430.385z M193.051,32.789c0-6.831,5.558-12.391,12.39-12.391h101.118
			c6.831,0,12.39,5.559,12.39,12.391s-5.559,12.39-12.39,12.39H205.442C198.609,45.179,193.051,39.621,193.051,32.789z
			 M101.186,359.117l73.201-71.123c26.9-26.138,42.329-62.64,42.329-100.149V65.579h78.567v122.265
			c0,37.509,15.428,74.012,42.33,100.149l73.2,71.123c17.326,16.834,29.1,38.568,33.823,62.11H67.365
			C72.087,397.685,83.86,375.952,101.186,359.117z M399.994,491.602H112.007c-25.897,0-46.965-21.069-46.965-46.965
			c0-1,0.013-2.004,0.039-3.011h381.841c0.026,1.006,0.039,2.01,0.039,3.011C446.959,470.533,425.89,491.602,399.994,491.602z"/>
	</g>
</g>
<g>
	<g>
		<path d="M411.028,389.61H295.777c-5.632,0-10.199,4.566-10.199,10.199s4.567,10.199,10.199,10.199h115.251
			c5.632,0,10.199-4.566,10.199-10.199S416.66,389.61,411.028,389.61z"/>
	</g>
</g>
<g>
	<g>
		<path d="M260.08,389.61h-7.139c-5.633,0-10.199,4.566-10.199,10.199s4.566,10.199,10.199,10.199h7.139
			c5.632,0,10.199-4.566,10.199-10.199S265.712,389.61,260.08,389.61z"/>
	</g>
</g>
<g>
</g>
<g>
</g>
<g>
</g>
<g>
</g>
<g>
</g>
<g>
</g>
<g>
</g>
<g>
</g>
<g>
</g>
<g>
</g>
<g>
</g>
<g>
</g>
<g>
</g>
<g>
</g>
<g>
</g>
</svg>
