<?xml version="1.0"?>
<svg xmlns="http://www.w3.org/2000/svg" width="512" height="512" viewBox="0 0 128 128"><g><path d="M112.337,33.343A36.986,36.986,0,0,0,86.01,22.44H27.5a1.737,1.737,0,0,0-1.69,1.31H19a4.75,4.75,0,0,1,0-9.5H41.44a1.75,1.75,0,0,0,0-3.5H19a8.25,8.25,0,1,0,0,16.5h7.2l.113.735c.091.595.2,1.182.319,1.765H19a10.75,10.75,0,0,1,0-21.5H48.5a1.75,1.75,0,0,0,0-3.5H19a14.25,14.25,0,0,0,0,28.5h8.542a34.427,34.427,0,0,0,17.445,20.5A18.5,18.5,0,0,0,44.53,64.54a1.743,1.743,0,0,0,1.67,1.23,1.807,1.807,0,0,0,.51-.08,1.75,1.75,0,0,0,1.16-2.18,15.287,15.287,0,0,1,.34-8.343A34.567,34.567,0,0,0,54.028,56.8a18.5,18.5,0,0,0,.352,9.619,1.753,1.753,0,0,0,1.65,1.15,1.8,1.8,0,0,0,.59-.11,1.745,1.745,0,0,0,1.06-2.23,15.2,15.2,0,0,1-.172-7.947c1.023.089,2.057.137,3.1.137H63.6A18.33,18.33,0,0,0,64.85,67.71a1.73,1.73,0,0,0,1.57.99,1.7,1.7,0,0,0,.76-.18,1.732,1.732,0,0,0,.81-2.33,15.05,15.05,0,0,1-.844-8.77H80.64a15.122,15.122,0,0,1,15.11,15.1c0,6.559-4.131,15.6-10.43,23.065-6.828-3.386-16.45-4.2-24.99-2.031a1.749,1.749,0,0,0-1.319,1.758c.015.421.417,9.457,6.893,13.251a36.311,36.311,0,0,0-5.491,12.554,1.749,1.749,0,0,0,1.707,2.133c19.312,0,25.967-11.341,28.09-17.039.1-.046.2-.084.29-.136,9.847-5.4,32.75-20.742,32.75-46.395A37,37,0,0,0,112.337,33.343ZM29.77,27.455l-.232-1.515H79.112c.655,5.995.18,20.109-2.066,27.98H60.61A31.031,31.031,0,0,1,29.77,27.455ZM80.662,53.921c2.119-8.312,2.561-21.579,1.954-27.981H86.01A33.492,33.492,0,0,1,109.2,35.189c-1.476,7.645-6.73,19.373-15.978,23.668A18.526,18.526,0,0,0,80.662,53.921Zm15,7.664c8.9-4.695,14.3-15.315,16.417-23.328A33.489,33.489,0,0,1,119.75,59.68a38.211,38.211,0,0,1-2.494,13.575A22.708,22.708,0,0,1,99.05,75.346a22.057,22.057,0,0,0,.2-2.826A18.469,18.469,0,0,0,95.661,61.585ZM64.4,119.689a31.549,31.549,0,0,1,5.529-10.652,1.75,1.75,0,0,0-.759-2.817c-4.711-1.57-6.106-7.008-6.508-9.616a34.148,34.148,0,0,1,20.361,1.774,5.559,5.559,0,0,0,3.253,8.161C83.984,111.462,78.238,118.944,64.4,119.689Zm24.412-16.683a2.074,2.074,0,0,1-.409.169l-.073.019a2.073,2.073,0,0,1-2.584-2.017,2.147,2.147,0,0,1,.588-1.448c5.93-6.427,10.269-14.1,12.036-20.929a28.1,28.1,0,0,0,5.106.94h.04c.82.08,1.61.11,2.38.11a25.952,25.952,0,0,0,9.1-1.634C108.1,91.135,95.385,99.4,88.816,103.006Z"/><path d="M64.75,47.92H60.61a25.734,25.734,0,0,1-4.97-.482,1.75,1.75,0,1,0-.677,3.434,29.241,29.241,0,0,0,5.647.548h4.14a1.75,1.75,0,0,0,0-3.5Z"/><path d="M56.25,32.127a4.75,4.75,0,1,0-4.75,4.75A4.756,4.756,0,0,0,56.25,32.127Zm-4.75,1.25a1.25,1.25,0,1,1,1.25-1.25A1.251,1.251,0,0,1,51.5,33.377Z"/></g></svg>
