<?xml version="1.0" encoding="iso-8859-1"?>
<!-- Generator: Adobe Illustrator 19.0.0, SVG Export Plug-In . SVG Version: 6.00 Build 0)  -->
<svg version="1.1" id="Layer_1" xmlns="http://www.w3.org/2000/svg" xmlns:xlink="http://www.w3.org/1999/xlink" x="0px" y="0px"
	 viewBox="0 0 512 512" style="enable-background:new 0 0 512 512;" xml:space="preserve">
<g>
	<g>
		<path d="M510.79,251.182c-0.666-1.241-16.659-30.751-48.078-60.499c-41.942-39.713-91.561-60.703-143.493-60.703
			c-35.555,0-80.581,12.453-133.825,37.015c-44.884,20.704-82.217,43.914-99.719,55.37c-16.824-18.239-42.523-41.186-69.267-61.715
			c-3.081-2.364-7.236-2.774-10.72-1.058C2.206,161.311,0,164.857,0,168.741V343.26c0,3.884,2.206,7.43,5.689,9.148
			c3.483,1.718,7.64,1.308,10.72-1.058c26.744-20.529,52.443-43.476,69.267-61.715c17.502,11.457,54.836,34.666,99.719,55.37
			c53.244,24.562,98.269,37.015,133.825,37.015c51.931,0,101.55-20.991,143.493-60.703c31.419-29.748,47.411-59.257,48.078-60.499
			C512.404,257.809,512.404,254.192,510.79,251.182z M448.221,306.945c-16.853,15.874-34.642,28.324-53.264,37.308
			c-8.743-5.373-34.218-24.767-41.281-71.567c-0.839-5.57-6.035-9.402-11.607-8.563c-5.57,0.84-9.404,6.037-8.563,11.607
			c6.234,41.306,25.28,65.052,39.412,77.396c-17.285,5.645-35.206,8.496-53.698,8.496c-72.087,0-178.206-58.979-229.545-93.829
			c-1.747-1.186-3.742-1.761-5.723-1.761c-2.899,0-5.764,1.232-7.769,3.585c-12.252,14.379-33.102,33.936-55.785,52.529v-34.198
			h11.043c5.633,0,10.199-4.566,10.199-10.199c0-5.633-4.566-10.199-10.199-10.199H20.398v-23.097h11.043
			c5.633,0,10.199-4.566,10.199-10.199s-4.566-10.199-10.199-10.199H20.398v-34.198c22.683,18.593,43.532,38.15,55.786,52.529
			c3.375,3.96,9.187,4.746,13.492,1.824c51.339-34.85,157.457-93.829,229.545-93.829c47.08,0,90.482,18.395,129.001,54.675
			c22.012,20.732,36.094,41.742,41.755,50.945C484.311,265.209,470.229,286.217,448.221,306.945z"/>
	</g>
</g>
<g>
	<g>
		<path d="M342.532,225.585c-5.624-0.288-10.431,4.007-10.736,9.632c-0.154,2.843-0.256,5.693-0.304,8.471
			c-0.096,5.632,4.394,10.276,10.025,10.371c0.059,0.001,0.117,0.001,0.176,0.001c5.552,0,10.1-4.453,10.195-10.026
			c0.043-2.527,0.136-5.122,0.276-7.714C352.469,230.697,348.156,225.89,342.532,225.585z"/>
	</g>
</g>
<g>
	<g>
		<path d="M405.706,197.248c-13.99,0-25.373,11.382-25.373,25.372c0,13.989,11.382,25.372,25.373,25.372
			c13.99,0,25.372-11.382,25.372-25.372C431.078,208.63,419.696,197.248,405.706,197.248z M405.706,227.593
			c-2.743,0-4.974-2.232-4.974-4.973c0-2.742,2.232-4.973,4.974-4.973c2.742,0,4.973,2.232,4.973,4.973
			C410.679,225.362,408.449,227.593,405.706,227.593z"/>
	</g>
</g>
<g>
	<g>
		<path d="M301.65,235.639l-10.489-10.49l8.467-8.466c1.912-1.912,2.987-4.507,2.987-7.212c0-2.705-1.075-5.299-2.987-7.212
			l-5.432-5.432l4.42-4.42c3.983-3.983,3.983-10.441,0-14.425c-3.984-3.983-10.44-3.983-14.425,0l-11.632,11.632
			c-1.912,1.912-2.987,4.507-2.987,7.212s1.075,5.299,2.987,7.212l5.432,5.432l-8.467,8.466c-1.912,1.912-2.987,4.507-2.987,7.212
			s1.075,5.299,2.987,7.212l10.49,10.49l-8.972,8.972c-3.983,3.983-3.983,10.441,0,14.425c1.992,1.992,4.602,2.987,7.212,2.987
			c2.61,0,5.22-0.995,7.212-2.987l16.184-16.184c1.912-1.912,2.987-4.507,2.987-7.212S303.562,237.551,301.65,235.639z"/>
	</g>
</g>
<g>
	<g>
		<path d="M211.623,261.937l-7.455-7.455l5.432-5.432c3.983-3.983,3.983-10.441,0-14.425c-3.983-3.983-10.441-3.983-14.425,0
			l-12.644,12.644c-3.983,3.983-3.983,10.441,0,14.425l7.456,7.456l-8.467,8.466c-3.983,3.983-3.983,10.441,0,14.425
			c1.992,1.992,4.602,2.987,7.212,2.987s5.221-0.995,7.212-2.987l15.679-15.679C215.606,272.379,215.606,265.921,211.623,261.937z"
			/>
	</g>
</g>
<g>
</g>
<g>
</g>
<g>
</g>
<g>
</g>
<g>
</g>
<g>
</g>
<g>
</g>
<g>
</g>
<g>
</g>
<g>
</g>
<g>
</g>
<g>
</g>
<g>
</g>
<g>
</g>
<g>
</g>
</svg>
