<?xml version="1.0" encoding="iso-8859-1"?>
<!-- Generator: Adobe Illustrator 19.0.0, SVG Export Plug-In . SVG Version: 6.00 Build 0)  -->
<svg version="1.1" id="Layer_1" xmlns="http://www.w3.org/2000/svg" xmlns:xlink="http://www.w3.org/1999/xlink" x="0px" y="0px"
	 viewBox="0 0 512 512" style="enable-background:new 0 0 512 512;" xml:space="preserve">
<g>
	<g>
		<path d="M445.479,142.246c-35.715-39.266-83.964-64.25-136.312-70.694C278.422,26.652,228.06,0,173.465,0
			C82.8,0,9.037,73.762,9.037,164.427c0,45.435,18.858,88.847,51.91,119.885c-0.066,2.217-0.099,4.434-0.099,6.63
			c0,59.047,22.994,114.559,64.747,156.312C167.346,489.006,222.858,512,281.905,512c59.047,0,114.56-22.994,156.312-64.746
			c41.751-41.753,64.746-97.265,64.746-156.312C502.963,235.809,482.549,183,445.479,142.246z M281.905,491.602
			c-110.644,0-200.659-90.015-200.659-200.659c0-3.456,0.09-6.969,0.268-10.443c0.159-3.101-1.103-6.104-3.428-8.161
			c-30.919-27.349-48.651-66.681-48.651-107.911c0-79.418,64.611-144.029,144.029-144.029c49.258,0,94.587,24.775,121.256,66.275
			c1.68,2.615,4.463,4.321,7.557,4.633c102.781,10.356,180.287,96.182,180.287,199.636
			C482.565,401.587,392.55,491.602,281.905,491.602z"/>
	</g>
</g>
<g>
	<g>
		<path d="M173.465,77.114c-48.145,0-87.313,39.168-87.313,87.313s39.168,87.313,87.313,87.313
			c48.144,0,87.312-39.168,87.312-87.313S221.609,77.114,173.465,77.114z M173.465,231.342c-36.897,0-66.915-30.018-66.915-66.915
			c0-36.897,30.018-66.915,66.915-66.915c36.897,0,66.914,30.018,66.914,66.915C240.378,201.324,210.361,231.342,173.465,231.342z"
			/>
	</g>
</g>
<g>
	<g>
		<path d="M390.767,425.945c-3.276-4.581-9.644-5.642-14.228-2.366c-27.716,19.813-60.44,30.286-94.633,30.286
			c-5.632,0-10.199,4.566-10.199,10.199c0,5.633,4.567,10.199,10.199,10.199c38.473,0,75.3-11.788,106.496-34.089
			C392.984,436.898,394.043,430.528,390.767,425.945z"/>
	</g>
</g>
<g>
	<g>
		<path d="M427.314,385.485c-4.529-3.345-10.915-2.387-14.263,2.144c-2.928,3.963-6.073,7.841-9.347,11.522
			c-3.742,4.21-3.364,10.657,0.846,14.399c1.944,1.728,4.363,2.577,6.773,2.577c2.812,0,5.612-1.156,7.626-3.423
			c3.681-4.14,7.216-8.499,10.508-12.956C432.805,395.218,431.844,388.832,427.314,385.485z"/>
	</g>
</g>
<g>
</g>
<g>
</g>
<g>
</g>
<g>
</g>
<g>
</g>
<g>
</g>
<g>
</g>
<g>
</g>
<g>
</g>
<g>
</g>
<g>
</g>
<g>
</g>
<g>
</g>
<g>
</g>
<g>
</g>
</svg>
