<?xml version="1.0" encoding="iso-8859-1"?>
<!-- Generator: Adobe Illustrator 19.0.0, SVG Export Plug-In . SVG Version: 6.00 Build 0)  -->
<svg version="1.1" id="Layer_1" xmlns="http://www.w3.org/2000/svg" xmlns:xlink="http://www.w3.org/1999/xlink" x="0px" y="0px"
	 viewBox="0 0 512 512" style="enable-background:new 0 0 512 512;" xml:space="preserve">
<g>
	<g>
		<path d="M384.015,386.543l-39.27-225.806c-0.85-4.885-5.09-8.452-10.049-8.452h-2.065v-8.476h1.043
			c5.632,0,10.199-4.566,10.199-10.199V99.117c0-5.633-4.567-10.199-10.199-10.199H296.69L276.631,7.752
			C275.508,3.198,271.422,0,266.732,0h-21.462c-4.691,0-8.775,3.198-9.901,7.752l-20.059,81.165h-36.984
			c-5.632,0-10.199,4.566-10.199,10.199v34.493c0,5.633,4.567,10.199,10.199,10.199h1.043v8.476h-2.065
			c-4.958,0-9.2,3.567-10.049,8.452l-39.269,225.806c-1.169,6.722-1.762,13.589-1.762,20.412v9.787
			c0,36.387,16.296,70.293,44.709,93.024c1.808,1.446,4.056,2.235,6.371,2.235h157.394c2.316,0,4.563-0.788,6.371-2.235
			c28.413-22.731,44.709-56.636,44.709-93.024v-9.787C385.778,400.132,385.185,393.265,384.015,386.543z M253.255,20.398h5.492
			l16.933,68.519h-39.357L253.255,20.398z M188.525,109.316h134.952v14.094H188.525V109.316z M312.234,143.809v8.476H199.768v-8.476
			H312.234z M185.883,172.683H326.12l5.443,31.301H180.439L185.883,172.683z M176.892,224.382h158.219l23.413,134.63H153.478
			L176.892,224.382z M365.381,416.741h-0.001c0,28.985-12.478,56.072-34.358,74.86H180.979
			c-21.879-18.788-34.358-45.875-34.358-74.86v-9.787c0-5.654,0.491-11.347,1.461-16.916l1.849-10.628h212.141l1.849,10.628
			c0.969,5.57,1.461,11.262,1.461,16.916V416.741z"/>
	</g>
</g>
<g>
	<g>
		<path d="M241.722,331.474h-64.255c-5.632,0-10.199,4.566-10.199,10.199c0,5.633,4.567,10.199,10.199,10.199h64.255
			c5.632,0,10.199-4.566,10.199-10.199C251.921,336.04,247.354,331.474,241.722,331.474z"/>
	</g>
</g>
<g>
	<g>
		<path d="M278.439,331.474h-6.12c-5.632,0-10.199,4.566-10.199,10.199c0,5.633,4.567,10.199,10.199,10.199h6.12
			c5.632,0,10.199-4.566,10.199-10.199C288.638,336.04,284.071,331.474,278.439,331.474z"/>
	</g>
</g>
<g>
</g>
<g>
</g>
<g>
</g>
<g>
</g>
<g>
</g>
<g>
</g>
<g>
</g>
<g>
</g>
<g>
</g>
<g>
</g>
<g>
</g>
<g>
</g>
<g>
</g>
<g>
</g>
<g>
</g>
</svg>
