<?xml version="1.0" encoding="iso-8859-1"?>
<!-- Generator: Adobe Illustrator 19.0.0, SVG Export Plug-In . SVG Version: 6.00 Build 0)  -->
<svg version="1.1" id="Layer_1" xmlns="http://www.w3.org/2000/svg" xmlns:xlink="http://www.w3.org/1999/xlink" x="0px" y="0px"
	 viewBox="0 0 512 512" style="enable-background:new 0 0 512 512;" xml:space="preserve">
<g>
	<g>
		<path d="M481.101,5.255c-1.922-3.47-5.682-5.504-9.64-5.231c-3.957,0.279-7.393,2.829-8.809,6.535
			c-0.106,0.276-11.04,27.766-53.77,40.939c-47.063,14.508-79.733,30.671-97.102,48.041c-12.96,12.959-23.294,27.552-30.718,43.374
			c-9.464,20.17-25.785,36.491-45.955,45.955c-15.822,7.424-30.414,17.758-43.374,30.718c-12.96,12.96-23.295,27.553-30.718,43.374
			c-9.465,20.171-25.785,36.492-45.955,45.955c-15.822,7.423-30.414,17.757-43.375,30.718
			c-21.713,21.713-29.957,45.707-37.929,68.911c-0.501,1.455-0.999,2.908-1.5,4.356c-4.937,14.262-17.785,29.542-17.909,29.689
			c-3.429,4.038-3.194,10.029,0.539,13.788c0.275,0.277,27.648,27.837,36.651,36.839C66.467,504.146,86.822,512,109.938,512
			c5.102,0,10.338-0.382,15.679-1.156c28.447-4.118,56.681-18.956,79.503-41.777c12.96-12.961,23.295-27.553,30.718-43.375
			c9.464-20.171,25.785-36.492,45.955-45.955c15.82-7.423,30.414-17.757,43.375-30.718c12.959-12.959,23.293-27.552,30.717-43.374
			c9.464-20.17,25.785-36.492,45.955-45.955c15.821-7.424,30.414-17.758,43.374-30.718c24.219-24.218,47.034-74.342,53.069-116.588
			C506.827,52.563,482.155,7.159,481.101,5.255z M478.089,109.502c-5.306,37.15-26.525,84.275-47.299,105.049
			c-11.283,11.283-23.939,20.257-37.614,26.674c-24.473,11.482-44.274,31.284-55.757,55.757
			c-6.417,13.676-15.391,26.331-26.674,37.614c-11.285,11.285-23.941,20.259-37.615,26.675
			c-24.473,11.483-44.274,31.284-55.757,55.757c-6.416,13.676-15.391,26.331-26.674,37.615
			c-19.732,19.731-43.883,32.521-68.003,36.013c-23.026,3.333-43.17-2.301-56.734-15.865c-6.292-6.291-21.603-21.693-30.299-30.445
			c5.021-6.922,12.065-17.781,15.871-28.775c0.507-1.464,1.011-2.93,1.516-4.401c7.55-21.977,14.682-42.736,33.061-61.116
			c11.284-11.283,23.94-20.258,37.615-26.674c24.473-11.483,44.274-31.284,55.757-55.757c6.416-13.675,15.391-26.33,26.675-37.614
			c11.283-11.283,23.939-20.257,37.614-26.674c24.473-11.482,44.274-31.284,55.757-55.757c6.416-13.676,15.391-26.331,26.674-37.614
			c14.784-14.784,45.452-29.644,88.688-42.973c28.5-8.786,45.639-23.406,55.412-35.098
			C476.135,48.714,482.764,76.778,478.089,109.502z"/>
	</g>
</g>
<g>
	<g>
		<path d="M309.913,230.839c-10.927-10.927-26.705-15.375-44.425-12.533c-16.507,2.65-32.937,11.447-46.263,24.773
			c-13.326,13.326-22.123,29.755-24.773,46.263c-2.844,17.721,1.607,33.499,12.533,44.425c8.773,8.773,20.672,13.372,34.195,13.372
			c3.319,0,6.738-0.277,10.23-0.837c16.507-2.65,32.937-11.448,46.263-24.774c13.326-13.327,22.123-29.756,24.773-46.263
			C325.29,257.543,320.839,241.765,309.913,230.839z M283.25,307.104c-10.315,10.314-22.77,17.082-35.072,19.057
			c-11.089,1.781-20.595-0.64-26.77-6.817c-6.175-6.175-8.597-15.682-6.817-26.769c1.974-12.302,8.742-24.758,19.058-35.072
			c12.665-12.665,28.607-19.571,42.029-19.571c7.856,0,14.849,2.367,19.812,7.33C308.934,258.705,303.328,287.025,283.25,307.104z"
			/>
	</g>
</g>
<g>
	<g>
		<path d="M189.868,350.886c-10.927-10.927-26.704-15.379-44.426-12.533c-16.507,2.65-32.937,11.447-46.263,24.773
			c-13.326,13.327-22.123,29.756-24.773,46.263c-2.844,17.721,1.607,33.499,12.533,44.426c8.773,8.773,20.671,13.371,34.194,13.371
			c3.32,0,6.738-0.277,10.232-0.837c16.507-2.65,32.937-11.447,46.263-24.773c13.326-13.327,22.123-29.756,24.773-46.263
			C205.246,377.589,200.794,361.813,189.868,350.886z M182.26,392.08c-1.974,12.302-8.742,24.758-19.058,35.072
			c-20.078,20.08-48.398,25.683-61.841,12.241c-13.444-13.444-7.839-41.763,12.24-61.842c10.315-10.315,22.77-17.083,35.072-19.058
			c2.376-0.381,4.679-0.57,6.892-0.57c8.116,0,15.026,2.534,19.878,7.387C181.618,371.485,184.04,380.993,182.26,392.08z"/>
	</g>
</g>
<g>
	<g>
		<path d="M429.959,110.792c-10.927-10.926-26.704-15.38-44.425-12.533c-16.507,2.65-32.937,11.447-46.263,24.773
			c-13.326,13.327-22.123,29.756-24.773,46.263c-2.844,17.722,1.607,33.499,12.533,44.426c8.773,8.773,20.671,13.371,34.194,13.371
			c3.32,0,6.738-0.277,10.231-0.838c16.507-2.65,32.936-11.447,46.262-24.773c13.326-13.326,22.124-29.755,24.774-46.263
			C445.337,137.496,440.885,121.718,429.959,110.792z M422.354,151.986c-1.975,12.302-8.742,24.758-19.058,35.072
			c-20.077,20.079-48.399,25.684-61.841,12.241c-13.444-13.444-7.839-41.763,12.24-61.842
			c10.314-10.315,22.769-17.083,35.072-19.058c2.375-0.381,4.678-0.57,6.891-0.57c8.116,0,15.026,2.534,19.879,7.387
			C421.713,131.392,424.134,140.898,422.354,151.986z"/>
	</g>
</g>
<g>
	<g>
		<path d="M154.301,411.511c-3.669-4.274-10.108-4.766-14.381-1.097c-7.462,6.404-14.571,9.254-18.353,9.254
			c-0.029,0-0.056,0-0.083,0c-5.619-0.055-10.249,4.453-10.312,10.085c-0.062,5.633,4.453,10.249,10.085,10.312
			c0.1,0.001,0.198,0.001,0.298,0.001c9.623,0,21.137-5.152,31.649-14.173C157.478,422.223,157.969,415.785,154.301,411.511z"/>
	</g>
</g>
<g>
	<g>
		<path d="M167.688,384.536c-5.295-1.924-11.145,0.809-13.069,6.103c-0.319,0.879-0.706,1.797-1.15,2.729
			c-2.423,5.084-0.265,11.171,4.82,13.594c1.416,0.675,2.91,0.994,4.38,0.994c3.81,0,7.466-2.146,9.214-5.814
			c0.724-1.52,1.367-3.046,1.908-4.537C175.714,392.311,172.982,386.459,167.688,384.536z"/>
	</g>
</g>
<g>
</g>
<g>
</g>
<g>
</g>
<g>
</g>
<g>
</g>
<g>
</g>
<g>
</g>
<g>
</g>
<g>
</g>
<g>
</g>
<g>
</g>
<g>
</g>
<g>
</g>
<g>
</g>
<g>
</g>
</svg>
