<svg id="Capa_1" enable-background="new 0 0 512 512" height="512" viewBox="0 0 512 512" width="512" xmlns="http://www.w3.org/2000/svg"><g><path d="m489.7 440.8c-5.66-5.65-13.19-8.78-21.2-8.8h-21.71v-51.82c0-5.52-4.48-10-9.99-10-5.52 0-10 4.48-10 10v41.82h-294.2c-1.679-4.588-3.489-9.126-5.451-13.59-5.76-13.12-12.77-25.77-20.84-37.61-8.149-11.94-17.47-23.19-27.7-33.42l-33.449-33.45c-7.511-7.51-11.65-17.55-11.66-28.29.01-10.73 4.149-20.77 11.66-28.28 7.5-7.51 17.55-11.64 28.279-11.66 10.73.02 20.771 4.15 28.28 11.66l28 28c1.89 1.89 4.4 2.93 7.08 2.93 1.31 0 2.6-.26 3.82-.76 3.75-1.56 6.17-5.18 6.17-9.24v-108.29c.01-37.38 14.569-72.54 41.01-99 26.45-26.43 61.61-41 99-41 37.38 0 72.53 14.57 98.99 41 26.439 26.46 41 61.62 41.01 99v130.18c0 5.51 4.48 10 10 10 5.51 0 10-4.49 10-10l-.009-130.18c0-21.6-4.23-42.56-12.57-62.28-4.01-9.48-8.97-18.62-14.75-27.18-5.729-8.47-12.3-16.44-19.54-23.68s-15.21-13.81-23.68-19.53c-8.55-5.78-17.69-10.74-27.181-14.75-19.719-8.35-40.67-12.58-62.269-12.58-21.61 0-42.56 4.23-62.29 12.58-9.479 4.01-18.62 8.97-27.17 14.75-8.48 5.72-16.44 12.29-23.68 19.53s-13.811 15.21-19.54 23.68c-5.78 8.56-10.74 17.7-14.75 27.18-8.34 19.72-12.57 40.68-12.57 62.28v84.15l-10.94-10.93c-5.689-5.7-12.359-10.12-19.819-13.13-7.19-2.91-14.78-4.38-22.561-4.38h-.08c-7.779 0-15.369 1.47-22.569 4.38-7.45 3.01-14.12 7.43-19.82 13.13s-10.12 12.38-13.14 19.84c-2.9 7.2-4.38 14.8-4.37 22.58-.01 7.79 1.47 15.39 4.37 22.59 3.02 7.46 7.439 14.14 13.14 19.84l33.46 33.45c40.19 40.2 62.33 93.64 62.33 150.48 0 2.63 1.06 5.21 2.92 7.07 1.87 1.86 4.44 2.93 7.08 2.93h300c2.63 0 5.2-1.07 7.06-2.93 1.87-1.86 2.931-4.44 2.931-7.07v-10h21.71c8.01-.02 15.54-3.14 21.2-8.8 5.649-5.66 8.779-13.19 8.8-21.2-.022-8.01-3.152-15.54-8.802-21.2zm-62.9 51.2h-280.22c-.62-14.39-2.59-28.8-5.86-42.83-.559-2.398-1.171-4.787-1.807-7.17h287.887zm48.75-22.95c-1.91 1.9-4.41 2.95-7.05 2.95h-21.71v-20h21.71c2.64 0 5.14 1.05 7.05 2.94 1.9 1.92 2.95 4.42 2.95 7.06s-1.05 5.14-2.95 7.05z"/><path d="m436.8 325.18c-5.52 0-10 4.48-10 10 0 5.51 4.48 10 10 10 5.51 0 9.99-4.49 9.99-10 0-5.52-4.48-10-9.99-10z"/></g></svg>